<svg width="32" height="28" viewBox="0 0 32 28" fill="none" xmlns="http://www.w3.org/2000/svg">
<path d="M3.55556 1.75C1.59444 1.75 0 3.31953 0 5.25V22.75C0 24.6805 1.59444 26.25 3.55556 26.25H28.4444C30.4056 26.25 32 24.6805 32 22.75V5.25C32 3.31953 30.4056 1.75 28.4444 1.75H3.55556ZM8 15.75H11.5556C14.0111 15.75 16 17.7078 16 20.125C16 20.6063 15.6 21 15.1111 21H4.44444C3.95556 21 3.55556 20.6063 3.55556 20.125C3.55556 17.7078 5.54444 15.75 8 15.75ZM6.22222 10.5C6.22222 9.57174 6.59682 8.6815 7.26362 8.02513C7.93042 7.36875 8.83479 7 9.77778 7C10.7208 7 11.6251 7.36875 12.2919 8.02513C12.9587 8.6815 13.3333 9.57174 13.3333 10.5C13.3333 11.4283 12.9587 12.3185 12.2919 12.9749C11.6251 13.6313 10.7208 14 9.77778 14C8.83479 14 7.93042 13.6313 7.26362 12.9749C6.59682 12.3185 6.22222 11.4283 6.22222 10.5ZM20.4444 8.75H27.5556C28.0444 8.75 28.4444 9.14375 28.4444 9.625C28.4444 10.1062 28.0444 10.5 27.5556 10.5H20.4444C19.9556 10.5 19.5556 10.1062 19.5556 9.625C19.5556 9.14375 19.9556 8.75 20.4444 8.75ZM20.4444 12.25H27.5556C28.0444 12.25 28.4444 12.6438 28.4444 13.125C28.4444 13.6062 28.0444 14 27.5556 14H20.4444C19.9556 14 19.5556 13.6062 19.5556 13.125C19.5556 12.6438 19.9556 12.25 20.4444 12.25ZM20.4444 15.75H27.5556C28.0444 15.75 28.4444 16.1438 28.4444 16.625C28.4444 17.1062 28.0444 17.5 27.5556 17.5H20.4444C19.9556 17.5 19.5556 17.1062 19.5556 16.625C19.5556 16.1438 19.9556 15.75 20.4444 15.75Z" fill="#33BFFF"/>
</svg>
