<svg width="50" height="50" viewBox="0 0 50 50" fill="none" xmlns="http://www.w3.org/2000/svg">
<rect width="50" height="50" rx="25" fill="#8833FF" fill-opacity="0.1"/>
<path fill-rule="evenodd" clip-rule="evenodd" d="M24.5865 34.5C25.6865 34.5 26.5865 33.6 26.5865 32.5H22.5865C22.5865 33.6 23.4765 34.5 24.5865 34.5ZM30.5865 28.5V23.5C30.5865 20.43 28.9465 17.86 26.0865 17.18V16.5C26.0865 15.67 25.4165 15 24.5865 15C23.7565 15 23.0865 15.67 23.0865 16.5V17.18C20.2165 17.86 18.5865 20.42 18.5865 23.5V28.5L17.2965 29.79C16.6665 30.42 17.1065 31.5 17.9965 31.5H31.1665C32.0565 31.5 32.5065 30.42 31.8765 29.79L30.5865 28.5Z" fill="#8833FF"/>
</svg>
