<svg width="30" height="30" viewBox="0 0 30 30" fill="none" xmlns="http://www.w3.org/2000/svg">
<path d="M29.7258 5.8994L24.101 0.274576C23.8329 0.00645951 23.4298 -0.074163 23.0791 0.0720825C22.7285 0.218328 22.4998 0.557692 22.4998 0.93643V3.74884H10.3127C4.61659 3.74884 0.000488281 8.36495 0.000488281 14.061C0.000488281 14.5785 0.420475 14.9985 0.937959 14.9985H4.68784C5.20533 14.9985 5.62531 14.5785 5.62531 14.061C5.62531 11.4717 7.72337 9.37367 10.3127 9.37367H22.4998V12.1861C22.4998 12.5648 22.7285 12.9079 23.0791 13.0523C23.4298 13.1985 23.8329 13.1179 24.101 12.8498L29.7258 7.22498C30.0914 6.85937 30.0914 6.26501 29.7258 5.8994Z" fill="#FF6633"/>
<path d="M29.0621 14.9987H25.3122C24.7947 14.9987 24.3747 15.4186 24.3747 15.9361C24.3747 18.5254 22.2766 20.6235 19.6874 20.6235H7.50023V17.8111C7.50023 17.4323 7.27149 17.0892 6.92088 16.9449C6.57026 16.8005 6.16903 16.8811 5.89903 17.1492L0.27421 22.7741C-0.0914034 23.1397 -0.0914034 23.734 0.27421 24.0996L5.89903 29.7245C6.16715 29.9926 6.57026 30.0732 6.92088 29.927C7.27149 29.7807 7.50023 29.4395 7.50023 29.0608V26.2483H19.6874C25.3834 26.2483 29.9995 21.6322 29.9995 15.9361C29.9995 15.4186 29.5795 14.9987 29.0621 14.9987Z" fill="#FF6633"/>
</svg>
