<svg width="32" height="32" viewBox="0 0 32 32" fill="none" xmlns="http://www.w3.org/2000/svg">
<path fill-rule="evenodd" clip-rule="evenodd" d="M16 0.666687C7.53601 0.666687 0.666672 7.53602 0.666672 16C0.666672 24.464 7.53601 31.3334 16 31.3334C24.464 31.3334 31.3333 24.464 31.3333 16C31.3333 7.53602 24.464 0.666687 16 0.666687ZM22.1333 17.5334H17.5333V22.1334C17.5333 22.9767 16.8433 23.6667 16 23.6667C15.1567 23.6667 14.4667 22.9767 14.4667 22.1334V17.5334H9.86667C9.02334 17.5334 8.33334 16.8434 8.33334 16C8.33334 15.1567 9.02334 14.4667 9.86667 14.4667H14.4667V9.86669C14.4667 9.02335 15.1567 8.33335 16 8.33335C16.8433 8.33335 17.5333 9.02335 17.5333 9.86669V14.4667H22.1333C22.9767 14.4667 23.6667 15.1567 23.6667 16C23.6667 16.8434 22.9767 17.5334 22.1333 17.5334Z" fill="#C3CAD9"/>
</svg>
