<svg width="15" height="16" viewBox="0 0 15 16" fill="none" xmlns="http://www.w3.org/2000/svg">
<path d="M8.4375 3.70203V10.8124C8.4375 11.3309 8.01855 11.7499 7.5 11.7499C6.98145 11.7499 6.5625 11.3309 6.5625 10.8124V3.70203L4.41211 5.85242C4.0459 6.21863 3.45117 6.21863 3.08496 5.85242C2.71875 5.48621 2.71875 4.89148 3.08496 4.52527L6.83496 0.775269C7.20117 0.409058 7.7959 0.409058 8.16211 0.775269L11.9121 4.52527C12.2783 4.89148 12.2783 5.48621 11.9121 5.85242C11.5459 6.21863 10.9512 6.21863 10.585 5.85242L8.4375 3.70203ZM1.875 10.8124H5.625C5.625 11.8466 6.46582 12.6874 7.5 12.6874C8.53418 12.6874 9.375 11.8466 9.375 10.8124H13.125C14.1592 10.8124 15 11.6532 15 12.6874V13.6249C15 14.6591 14.1592 15.4999 13.125 15.4999H1.875C0.84082 15.4999 0 14.6591 0 13.6249V12.6874C0 11.6532 0.84082 10.8124 1.875 10.8124ZM12.6562 13.8593C12.8427 13.8593 13.0216 13.7852 13.1534 13.6533C13.2853 13.5215 13.3594 13.3426 13.3594 13.1561C13.3594 12.9696 13.2853 12.7908 13.1534 12.6589C13.0216 12.5271 12.8427 12.453 12.6562 12.453C12.4698 12.453 12.2909 12.5271 12.1591 12.6589C12.0272 12.7908 11.9531 12.9696 11.9531 13.1561C11.9531 13.3426 12.0272 13.5215 12.1591 13.6533C12.2909 13.7852 12.4698 13.8593 12.6562 13.8593Z" fill="#C6CEDD"/>
</svg>
