<svg width="26" height="30" viewBox="0 0 26 30" fill="none" xmlns="http://www.w3.org/2000/svg">
<path d="M12.3254 14.4511C14.3107 14.4511 16.0298 13.739 17.4345 12.3342C18.8391 10.9295 19.5512 9.21086 19.5512 7.22531C19.5512 5.24046 18.8391 3.52156 17.4342 2.11646C16.0294 0.712049 14.3105 0 12.3254 0C10.3398 0 8.62117 0.712049 7.21653 2.11669C5.81189 3.52133 5.09961 5.24023 5.09961 7.22531C5.09961 9.21086 5.81189 10.9298 7.21676 12.3344C8.62163 13.7388 10.3405 14.4511 12.3254 14.4511Z" fill="#29CC39"/>
<path d="M24.9684 23.0684C24.9279 22.4838 24.8459 21.8462 24.7253 21.1728C24.6036 20.4944 24.4468 19.8531 24.2591 19.2669C24.0652 18.6611 23.8016 18.0628 23.4756 17.4894C23.1373 16.8943 22.74 16.3762 22.2941 15.9497C21.8279 15.5037 21.2571 15.145 20.597 14.8834C19.9392 14.6232 19.2102 14.4913 18.4304 14.4913C18.1242 14.4913 17.828 14.617 17.256 14.9894C16.904 15.2189 16.4922 15.4844 16.0327 15.7781C15.6397 16.0285 15.1073 16.2631 14.4497 16.4755C13.8082 16.6831 13.1568 16.7884 12.5138 16.7884C11.8709 16.7884 11.2197 16.6831 10.5775 16.4755C9.92062 16.2633 9.38824 16.0287 8.99571 15.7783C8.54046 15.4874 8.12848 15.2219 7.77119 14.9891C7.19991 14.6167 6.90351 14.4911 6.59726 14.4911C5.81724 14.4911 5.08848 14.6232 4.43091 14.8836C3.77127 15.1448 3.20021 15.5034 2.73353 15.95C2.28789 16.3766 1.89033 16.8946 1.5525 17.4894C1.2268 18.0628 0.963131 18.6608 0.76904 19.2671C0.581586 19.8533 0.424803 20.4944 0.303038 21.1728C0.182418 21.8453 0.100479 22.4832 0.0599668 23.0691C0.0201415 23.6431 0 24.2389 0 24.8406C0 26.4066 0.497816 27.6744 1.47949 28.6094C2.44903 29.532 3.7319 30.0001 5.29196 30.0001H19.7371C21.2971 30.0001 22.5796 29.5322 23.5493 28.6094C24.5312 27.6751 25.029 26.4071 25.029 24.8404C25.0288 24.2359 25.0084 23.6397 24.9684 23.0684Z" fill="#29CC39"/>
</svg>
